<mxfile host="Electron" agent="Mozilla/5.0 (X11; Linux x86_64) AppleWebKit/537.36 (KHTML, like Gecko) draw.io/24.7.17 Chrome/128.0.6613.36 Electron/32.0.1 Safari/537.36" version="24.7.17">
  <diagram name="Page-1" id="0DTygFMDUQJiS_rZFcbK">
    <mxGraphModel dx="1434" dy="838" grid="1" gridSize="10" guides="1" tooltips="1" connect="1" arrows="1" fold="1" page="1" pageScale="1" pageWidth="827" pageHeight="1169" math="0" shadow="0">
      <root>
        <mxCell id="0" />
        <mxCell id="1" parent="0" />
        <object label="" placeholders="1" class_name="g_t" id="57yz_Z7oe9A5NPwQm8N_-1">
          <mxCell style="rounded=0;whiteSpace=wrap;html=1;fillColor=#fff2cc;strokeColor=#d6b656;container=0;connectable=0;allowArrows=0;treeFolding=0;moveCells=0;treeMoving=0;comic=0;rotatable=0;expand=1;autosize=1;resizeWidth=1;resizeHeight=1;metaEdit=1;" parent="1" vertex="1">
            <mxGeometry x="70" y="50" width="750" height="500" as="geometry">
              <mxRectangle x="40" y="400" width="50" height="40" as="alternateBounds" />
            </mxGeometry>
          </mxCell>
        </object>
        <object label="%class_name%" placeholders="1" id="57yz_Z7oe9A5NPwQm8N_-2">
          <mxCell style="rounded=0;whiteSpace=wrap;html=1;fillColor=#ffffff;fontSize=18;connectable=0;allowArrows=0;rotatable=0;cloneable=0;deletable=0;" parent="57yz_Z7oe9A5NPwQm8N_-1" vertex="1">
            <mxGeometry x="10.56338028169014" y="20" width="728.8732394366197" height="40" as="geometry" />
          </mxCell>
        </object>
        <mxCell id="57yz_Z7oe9A5NPwQm8N_-3" value="" style="rounded=0;whiteSpace=wrap;html=1;fillColor=#ffffff;connectable=0;allowArrows=0;container=1;collapsible=0;portConstraintRotation=0;rotatable=0;cloneable=0;deletable=0;recursiveResize=0;" parent="57yz_Z7oe9A5NPwQm8N_-1" vertex="1">
          <mxGeometry x="10.56338028169014" y="70" width="728.8732394366197" height="420" as="geometry">
            <mxRectangle x="10" y="70" width="50" height="40" as="alternateBounds" />
          </mxGeometry>
        </mxCell>
        <mxCell id="lBjsrYSol-ikti7NKIQm-9" style="edgeStyle=orthogonalEdgeStyle;rounded=0;orthogonalLoop=1;jettySize=auto;html=1;exitX=1;exitY=0.5;exitDx=0;exitDy=0;exitPerimeter=0;entryX=0;entryY=0.5;entryDx=0;entryDy=0;" edge="1" parent="57yz_Z7oe9A5NPwQm8N_-3" source="57yz_Z7oe9A5NPwQm8N_-4" target="lBjsrYSol-ikti7NKIQm-8">
          <mxGeometry relative="1" as="geometry" />
        </mxCell>
        <mxCell id="lBjsrYSol-ikti7NKIQm-14" style="edgeStyle=orthogonalEdgeStyle;rounded=0;orthogonalLoop=1;jettySize=auto;html=1;exitX=1;exitY=0.5;exitDx=0;exitDy=0;exitPerimeter=0;entryX=0;entryY=0.5;entryDx=0;entryDy=0;" edge="1" parent="57yz_Z7oe9A5NPwQm8N_-3" source="57yz_Z7oe9A5NPwQm8N_-4" target="lBjsrYSol-ikti7NKIQm-12">
          <mxGeometry relative="1" as="geometry" />
        </mxCell>
        <object label="%name%" placeholders="1" name="t" class_name="InputPort" id="57yz_Z7oe9A5NPwQm8N_-4">
          <mxCell style="triangle;fontSize=14;points=[[1,0.5,0,0,0]];allowArrows=0;verticalAlign=middle;horizontal=1;spacingTop=0;align=right;spacingLeft=0;spacingRight=8;html=1;comic=0;treeFolding=0;treeMoving=0;resizable=0;movableLabel=1;spacing=2;aspect=fixed;fillColor=#000000;metaEdit=1;" parent="57yz_Z7oe9A5NPwQm8N_-3" vertex="1">
            <mxGeometry x="21.12676056338028" y="202.5" width="10" height="15" as="geometry">
              <mxPoint x="-4" y="-8" as="offset" />
            </mxGeometry>
          </mxCell>
        </object>
        <object label="%name%" placeholders="1" name="g(t)" class_name="OutputPort" id="57yz_Z7oe9A5NPwQm8N_-5">
          <mxCell style="triangle;fillColor=#ffffff;fontSize=14;points=[[0,0.5],[1,0.5]];allowArrows=0;verticalAlign=middle;horizontal=1;spacingTop=0;align=left;spacingLeft=4;spacingRight=0;html=1;comic=0;treeFolding=0;treeMoving=0;movable=1;resizable=0;rotatable=1;deletable=1;editable=1;connectable=1;movableLabel=1;spacing=2;aspect=fixed;metaEdit=1;" parent="57yz_Z7oe9A5NPwQm8N_-3" vertex="1">
            <mxGeometry x="697.1830985915492" y="202.5" width="10" height="15" as="geometry">
              <mxPoint x="5" y="-7" as="offset" />
            </mxGeometry>
          </mxCell>
        </object>
        <object label="%symbol%" placeholders="1" symbol="&amp;prod;" class_name="ProductBlock" block_name="" numberOfInputs="2" id="57yz_Z7oe9A5NPwQm8N_-20">
          <mxCell style="whiteSpace=wrap;html=1;aspect=fixed;comic=0;fillColor=#FFFFFF;fontSize=36;align=center;resizable=0;container=1;collapsible=0;points=[];allowArrows=0;spacingTop=-6;metaEdit=1;connectable=0;" parent="57yz_Z7oe9A5NPwQm8N_-3" vertex="1">
            <mxGeometry x="295.7746478873239" y="240" width="80" height="80" as="geometry" />
          </mxCell>
        </object>
        <object label="%name%" placeholders="1" name="OUT1" class_name="OutputPort" id="57yz_Z7oe9A5NPwQm8N_-21">
          <mxCell style="triangle;fillColor=#ffffff;fontSize=14;points=[[1,0.5]];allowArrows=0;verticalAlign=middle;horizontal=1;spacingTop=0;align=left;spacingLeft=4;spacingRight=0;html=1;comic=0;treeFolding=0;treeMoving=0;movable=1;resizable=0;rotatable=1;deletable=1;editable=1;connectable=1;movableLabel=1;spacing=2;aspect=fixed;metaEdit=1;" parent="57yz_Z7oe9A5NPwQm8N_-20" vertex="1">
            <mxGeometry x="70" y="32.5" width="10" height="15" as="geometry">
              <mxPoint x="5" y="-7" as="offset" />
            </mxGeometry>
          </mxCell>
        </object>
        <object label="%name%" placeholders="1" name="IN1" class_name="InputPort" id="57yz_Z7oe9A5NPwQm8N_-22">
          <mxCell style="triangle;fontSize=14;points=[[0,0.5]];allowArrows=0;verticalAlign=middle;horizontal=1;spacingTop=0;align=right;spacingLeft=0;spacingRight=8;html=1;comic=0;treeFolding=0;treeMoving=0;resizable=0;movableLabel=1;spacing=2;aspect=fixed;fillColor=#000000;metaEdit=1;" parent="57yz_Z7oe9A5NPwQm8N_-20" vertex="1">
            <mxGeometry y="17.5" width="10" height="15" as="geometry">
              <mxPoint x="-4" y="-8" as="offset" />
            </mxGeometry>
          </mxCell>
        </object>
        <object label="%name%" placeholders="1" name="IN2" class_name="InputPort" id="57yz_Z7oe9A5NPwQm8N_-23">
          <mxCell style="triangle;fontSize=14;points=[[0,0.5]];allowArrows=0;verticalAlign=middle;horizontal=1;spacingTop=0;align=right;spacingLeft=0;spacingRight=8;html=1;comic=0;treeFolding=0;treeMoving=0;resizable=0;movableLabel=1;spacing=2;aspect=fixed;fillColor=#000000;metaEdit=1;" parent="57yz_Z7oe9A5NPwQm8N_-20" vertex="1">
            <mxGeometry y="47.5" width="10" height="15" as="geometry">
              <mxPoint x="-4" y="-8" as="offset" />
            </mxGeometry>
          </mxCell>
        </object>
        <mxCell id="57yz_Z7oe9A5NPwQm8N_-24" style="edgeStyle=orthogonalEdgeStyle;rounded=0;orthogonalLoop=1;jettySize=auto;html=1;exitX=1;exitY=0.5;exitDx=0;exitDy=0;entryX=0;entryY=0.5;entryDx=0;entryDy=0;" parent="57yz_Z7oe9A5NPwQm8N_-3" source="lBjsrYSol-ikti7NKIQm-11" target="57yz_Z7oe9A5NPwQm8N_-22" edge="1">
          <mxGeometry relative="1" as="geometry">
            <mxPoint x="196.19718309859147" y="280" as="sourcePoint" />
          </mxGeometry>
        </mxCell>
        <mxCell id="57yz_Z7oe9A5NPwQm8N_-25" style="edgeStyle=orthogonalEdgeStyle;rounded=0;orthogonalLoop=1;jettySize=auto;html=1;exitX=1;exitY=0.5;exitDx=0;exitDy=0;entryX=0;entryY=0.5;entryDx=0;entryDy=0;" parent="57yz_Z7oe9A5NPwQm8N_-3" source="lBjsrYSol-ikti7NKIQm-11" target="57yz_Z7oe9A5NPwQm8N_-23" edge="1">
          <mxGeometry relative="1" as="geometry">
            <mxPoint x="196.19718309859147" y="280" as="sourcePoint" />
          </mxGeometry>
        </mxCell>
        <object label="%symbol%" placeholders="1" symbol="&amp;#8543;" class_name="InverterBlock" block_name="" id="57yz_Z7oe9A5NPwQm8N_-29">
          <mxCell style="whiteSpace=wrap;html=1;aspect=fixed;comic=0;fillColor=#FFFFFF;fontSize=36;align=center;resizable=0;container=1;collapsible=0;points=[];allowArrows=0;metaEdit=1;connectable=0;" parent="57yz_Z7oe9A5NPwQm8N_-3" vertex="1">
            <mxGeometry x="454.22535211267603" y="240" width="80" height="80" as="geometry" />
          </mxCell>
        </object>
        <object label="%name%" placeholders="1" name="OUT1" class_name="OutputPort" id="57yz_Z7oe9A5NPwQm8N_-30">
          <mxCell style="triangle;fillColor=#ffffff;fontSize=14;points=[[1,0.5]];allowArrows=0;verticalAlign=middle;horizontal=1;spacingTop=0;align=left;spacingLeft=4;spacingRight=0;html=1;comic=0;treeFolding=0;treeMoving=0;movable=1;resizable=0;rotatable=1;deletable=1;editable=1;connectable=1;movableLabel=1;spacing=2;aspect=fixed;metaEdit=1;" parent="57yz_Z7oe9A5NPwQm8N_-29" vertex="1">
            <mxGeometry x="70" y="32.5" width="10" height="15" as="geometry">
              <mxPoint x="5" y="-7" as="offset" />
            </mxGeometry>
          </mxCell>
        </object>
        <object label="%name%" placeholders="1" name="IN1" class_name="InputPort" id="57yz_Z7oe9A5NPwQm8N_-31">
          <mxCell style="triangle;fontSize=14;points=[[0,0.5]];allowArrows=0;verticalAlign=middle;horizontal=1;spacingTop=0;align=right;spacingLeft=0;spacingRight=8;html=1;comic=0;treeFolding=0;treeMoving=0;resizable=0;movableLabel=1;spacing=2;aspect=fixed;fillColor=#000000;metaEdit=1;" parent="57yz_Z7oe9A5NPwQm8N_-29" vertex="1">
            <mxGeometry y="32.5" width="10" height="15" as="geometry">
              <mxPoint x="-4" y="-8" as="offset" />
            </mxGeometry>
          </mxCell>
        </object>
        <mxCell id="57yz_Z7oe9A5NPwQm8N_-32" style="edgeStyle=orthogonalEdgeStyle;rounded=0;orthogonalLoop=1;jettySize=auto;html=1;exitX=1;exitY=0.5;exitDx=0;exitDy=0;entryX=0;entryY=0.5;entryDx=0;entryDy=0;" parent="57yz_Z7oe9A5NPwQm8N_-3" source="57yz_Z7oe9A5NPwQm8N_-21" target="57yz_Z7oe9A5NPwQm8N_-31" edge="1">
          <mxGeometry relative="1" as="geometry" />
        </mxCell>
        <object label="%symbol%" placeholders="1" symbol="&amp;prod;" class_name="ProductBlock" block_name="" numberOfInputs="2" id="57yz_Z7oe9A5NPwQm8N_-33">
          <mxCell style="whiteSpace=wrap;html=1;aspect=fixed;comic=0;fillColor=#FFFFFF;fontSize=36;align=center;resizable=0;container=1;collapsible=0;points=[];allowArrows=0;spacingTop=-6;metaEdit=1;connectable=0;" parent="57yz_Z7oe9A5NPwQm8N_-3" vertex="1">
            <mxGeometry x="579.4366197183099" y="170" width="80" height="80" as="geometry" />
          </mxCell>
        </object>
        <object label="%name%" placeholders="1" name="OUT1" class_name="OutputPort" id="57yz_Z7oe9A5NPwQm8N_-34">
          <mxCell style="triangle;fillColor=#ffffff;fontSize=14;points=[[1,0.5]];allowArrows=0;verticalAlign=middle;horizontal=1;spacingTop=0;align=left;spacingLeft=4;spacingRight=0;html=1;comic=0;treeFolding=0;treeMoving=0;movable=1;resizable=0;rotatable=1;deletable=1;editable=1;connectable=1;movableLabel=1;spacing=2;aspect=fixed;metaEdit=1;" parent="57yz_Z7oe9A5NPwQm8N_-33" vertex="1">
            <mxGeometry x="70" y="32.5" width="10" height="15" as="geometry">
              <mxPoint x="5" y="-7" as="offset" />
            </mxGeometry>
          </mxCell>
        </object>
        <object label="%name%" placeholders="1" name="IN1" class_name="InputPort" id="57yz_Z7oe9A5NPwQm8N_-35">
          <mxCell style="triangle;fontSize=14;points=[[0,0.5]];allowArrows=0;verticalAlign=middle;horizontal=1;spacingTop=0;align=right;spacingLeft=0;spacingRight=8;html=1;comic=0;treeFolding=0;treeMoving=0;resizable=0;movableLabel=1;spacing=2;aspect=fixed;fillColor=#000000;metaEdit=1;" parent="57yz_Z7oe9A5NPwQm8N_-33" vertex="1">
            <mxGeometry y="17.5" width="10" height="15" as="geometry">
              <mxPoint x="-4" y="-8" as="offset" />
            </mxGeometry>
          </mxCell>
        </object>
        <object label="%name%" placeholders="1" name="IN2" class_name="InputPort" id="57yz_Z7oe9A5NPwQm8N_-36">
          <mxCell style="triangle;fontSize=14;points=[[0,0.5]];allowArrows=0;verticalAlign=middle;horizontal=1;spacingTop=0;align=right;spacingLeft=0;spacingRight=8;html=1;comic=0;treeFolding=0;treeMoving=0;resizable=0;movableLabel=1;spacing=2;aspect=fixed;fillColor=#000000;metaEdit=1;" parent="57yz_Z7oe9A5NPwQm8N_-33" vertex="1">
            <mxGeometry y="47.5" width="10" height="15" as="geometry">
              <mxPoint x="-4" y="-8" as="offset" />
            </mxGeometry>
          </mxCell>
        </object>
        <mxCell id="57yz_Z7oe9A5NPwQm8N_-37" style="edgeStyle=orthogonalEdgeStyle;rounded=0;orthogonalLoop=1;jettySize=auto;html=1;exitX=1;exitY=0.5;exitDx=0;exitDy=0;entryX=0;entryY=0.5;entryDx=0;entryDy=0;" parent="57yz_Z7oe9A5NPwQm8N_-3" source="57yz_Z7oe9A5NPwQm8N_-30" target="57yz_Z7oe9A5NPwQm8N_-36" edge="1">
          <mxGeometry relative="1" as="geometry" />
        </mxCell>
        <mxCell id="57yz_Z7oe9A5NPwQm8N_-38" style="edgeStyle=orthogonalEdgeStyle;rounded=0;orthogonalLoop=1;jettySize=auto;html=1;exitX=1;exitY=0.5;exitDx=0;exitDy=0;entryX=0;entryY=0.5;entryDx=0;entryDy=0;" parent="57yz_Z7oe9A5NPwQm8N_-3" source="lBjsrYSol-ikti7NKIQm-6" target="57yz_Z7oe9A5NPwQm8N_-35" edge="1">
          <mxGeometry relative="1" as="geometry">
            <mxPoint x="196.19718309859147" y="150" as="sourcePoint" />
          </mxGeometry>
        </mxCell>
        <mxCell id="57yz_Z7oe9A5NPwQm8N_-39" style="edgeStyle=orthogonalEdgeStyle;rounded=0;orthogonalLoop=1;jettySize=auto;html=1;exitX=1;exitY=0.5;exitDx=0;exitDy=0;entryX=0;entryY=0.5;entryDx=0;entryDy=0;" parent="57yz_Z7oe9A5NPwQm8N_-3" source="57yz_Z7oe9A5NPwQm8N_-34" target="57yz_Z7oe9A5NPwQm8N_-5" edge="1">
          <mxGeometry relative="1" as="geometry" />
        </mxCell>
        <object label="%symbol%" placeholders="1" symbol="&amp;sum;" class_name="AdderBlock" block_name="" numberOfInputs="2" id="lBjsrYSol-ikti7NKIQm-5">
          <mxCell style="whiteSpace=wrap;html=1;aspect=fixed;comic=0;fillColor=#FFFFFF;fontSize=36;align=center;resizable=0;container=1;collapsible=0;points=[];allowArrows=0;spacingTop=-6;metaEdit=1;connectable=0;" vertex="1" parent="57yz_Z7oe9A5NPwQm8N_-3">
            <mxGeometry x="149.43661971830986" y="110" width="80" height="80" as="geometry" />
          </mxCell>
        </object>
        <object label="%name%" placeholders="1" name="OUT1" class_name="OutputPort" id="lBjsrYSol-ikti7NKIQm-6">
          <mxCell style="triangle;fillColor=#ffffff;fontSize=14;points=[[1,0.5]];allowArrows=0;verticalAlign=middle;horizontal=1;spacingTop=0;align=left;spacingLeft=4;spacingRight=0;html=1;comic=0;treeFolding=0;treeMoving=0;movable=1;resizable=0;rotatable=1;deletable=1;editable=1;connectable=1;movableLabel=1;spacing=2;aspect=fixed;metaEdit=1;" vertex="1" parent="lBjsrYSol-ikti7NKIQm-5">
            <mxGeometry x="70" y="32.5" width="10" height="15" as="geometry">
              <mxPoint x="5" y="-7" as="offset" />
            </mxGeometry>
          </mxCell>
        </object>
        <object label="%name%" placeholders="1" name="IN1" class_name="InputPort" id="lBjsrYSol-ikti7NKIQm-7">
          <mxCell style="triangle;fontSize=14;points=[[0,0.5]];allowArrows=0;verticalAlign=middle;horizontal=1;spacingTop=0;align=right;spacingLeft=0;spacingRight=8;html=1;comic=0;treeFolding=0;treeMoving=0;resizable=0;movableLabel=1;spacing=2;aspect=fixed;fillColor=#000000;metaEdit=1;" vertex="1" parent="lBjsrYSol-ikti7NKIQm-5">
            <mxGeometry y="17.5" width="10" height="15" as="geometry">
              <mxPoint x="-4" y="-8" as="offset" />
            </mxGeometry>
          </mxCell>
        </object>
        <object label="%name%" placeholders="1" name="IN2" class_name="InputPort" id="lBjsrYSol-ikti7NKIQm-8">
          <mxCell style="triangle;fontSize=14;points=[[0,0.5]];allowArrows=0;verticalAlign=middle;horizontal=1;spacingTop=0;align=right;spacingLeft=0;spacingRight=8;html=1;comic=0;treeFolding=0;treeMoving=0;resizable=0;movableLabel=1;spacing=2;aspect=fixed;fillColor=#000000;metaEdit=1;" vertex="1" parent="lBjsrYSol-ikti7NKIQm-5">
            <mxGeometry y="47.5" width="10" height="15" as="geometry">
              <mxPoint x="-4" y="-8" as="offset" />
            </mxGeometry>
          </mxCell>
        </object>
        <object label="%symbol%" placeholders="1" symbol="&amp;sum;" class_name="AdderBlock" block_name="" numberOfInputs="2" id="lBjsrYSol-ikti7NKIQm-10">
          <mxCell style="whiteSpace=wrap;html=1;aspect=fixed;comic=0;fillColor=#FFFFFF;fontSize=36;align=center;resizable=0;container=1;collapsible=0;points=[];allowArrows=0;spacingTop=-6;metaEdit=1;connectable=0;" vertex="1" parent="57yz_Z7oe9A5NPwQm8N_-3">
            <mxGeometry x="149.43661971830986" y="240" width="80" height="80" as="geometry" />
          </mxCell>
        </object>
        <object label="%name%" placeholders="1" name="OUT1" class_name="OutputPort" id="lBjsrYSol-ikti7NKIQm-11">
          <mxCell style="triangle;fillColor=#ffffff;fontSize=14;points=[[1,0.5]];allowArrows=0;verticalAlign=middle;horizontal=1;spacingTop=0;align=left;spacingLeft=4;spacingRight=0;html=1;comic=0;treeFolding=0;treeMoving=0;movable=1;resizable=0;rotatable=1;deletable=1;editable=1;connectable=1;movableLabel=1;spacing=2;aspect=fixed;metaEdit=1;" vertex="1" parent="lBjsrYSol-ikti7NKIQm-10">
            <mxGeometry x="70" y="32.5" width="10" height="15" as="geometry">
              <mxPoint x="5" y="-7" as="offset" />
            </mxGeometry>
          </mxCell>
        </object>
        <object label="%name%" placeholders="1" name="IN1" class_name="InputPort" id="lBjsrYSol-ikti7NKIQm-12">
          <mxCell style="triangle;fontSize=14;points=[[0,0.5]];allowArrows=0;verticalAlign=middle;horizontal=1;spacingTop=0;align=right;spacingLeft=0;spacingRight=8;html=1;comic=0;treeFolding=0;treeMoving=0;resizable=0;movableLabel=1;spacing=2;aspect=fixed;fillColor=#000000;metaEdit=1;" vertex="1" parent="lBjsrYSol-ikti7NKIQm-10">
            <mxGeometry y="17.5" width="10" height="15" as="geometry">
              <mxPoint x="-4" y="-8" as="offset" />
            </mxGeometry>
          </mxCell>
        </object>
        <object label="%name%" placeholders="1" name="IN2" class_name="InputPort" id="lBjsrYSol-ikti7NKIQm-13">
          <mxCell style="triangle;fontSize=14;points=[[0,0.5]];allowArrows=0;verticalAlign=middle;horizontal=1;spacingTop=0;align=right;spacingLeft=0;spacingRight=8;html=1;comic=0;treeFolding=0;treeMoving=0;resizable=0;movableLabel=1;spacing=2;aspect=fixed;fillColor=#000000;metaEdit=1;" vertex="1" parent="lBjsrYSol-ikti7NKIQm-10">
            <mxGeometry y="47.5" width="10" height="15" as="geometry">
              <mxPoint x="-4" y="-8" as="offset" />
            </mxGeometry>
          </mxCell>
        </object>
        <object label="%value%" placeholders="1" value="2" block_name="" class_name="ConstantBlock" id="lBjsrYSol-ikti7NKIQm-15">
          <mxCell style="ellipse;whiteSpace=wrap;html=1;comic=0;fillColor=#ffffff;fontSize=24;align=center;allowArrows=0;connectable=0;container=1;collapsible=0;recursiveResize=1;direction=west;resizable=0;metaEdit=1;" vertex="1" parent="57yz_Z7oe9A5NPwQm8N_-3">
            <mxGeometry x="21.436619718309856" y="30" width="80" height="80" as="geometry" />
          </mxCell>
        </object>
        <object label="%name%" placeholders="1" name="OUT1" class_name="OutputPort" id="lBjsrYSol-ikti7NKIQm-16">
          <mxCell style="triangle;fillColor=#ffffff;fontSize=14;points=[[1,0.5]];allowArrows=0;verticalAlign=middle;horizontal=1;spacingTop=0;align=left;spacingLeft=4;spacingRight=0;html=1;comic=0;treeFolding=0;treeMoving=0;movable=1;resizable=0;rotatable=1;deletable=1;editable=1;connectable=1;movableLabel=1;spacing=2;aspect=fixed;metaEdit=1;" vertex="1" parent="lBjsrYSol-ikti7NKIQm-15">
            <mxGeometry x="70" y="32.5" width="10" height="15" as="geometry">
              <mxPoint x="6" y="-7" as="offset" />
            </mxGeometry>
          </mxCell>
        </object>
        <object label="%value%" placeholders="1" value="3" block_name="" class_name="ConstantBlock" id="lBjsrYSol-ikti7NKIQm-17">
          <mxCell style="ellipse;whiteSpace=wrap;html=1;comic=0;fillColor=#ffffff;fontSize=24;align=center;allowArrows=0;connectable=0;container=1;collapsible=0;recursiveResize=1;direction=west;resizable=0;metaEdit=1;" vertex="1" parent="57yz_Z7oe9A5NPwQm8N_-3">
            <mxGeometry x="21.436619718309856" y="330" width="80" height="80" as="geometry" />
          </mxCell>
        </object>
        <object label="%name%" placeholders="1" name="OUT1" class_name="OutputPort" id="lBjsrYSol-ikti7NKIQm-18">
          <mxCell style="triangle;fillColor=#ffffff;fontSize=14;points=[[1,0.5]];allowArrows=0;verticalAlign=middle;horizontal=1;spacingTop=0;align=left;spacingLeft=4;spacingRight=0;html=1;comic=0;treeFolding=0;treeMoving=0;movable=1;resizable=0;rotatable=1;deletable=1;editable=1;connectable=1;movableLabel=1;spacing=2;aspect=fixed;metaEdit=1;" vertex="1" parent="lBjsrYSol-ikti7NKIQm-17">
            <mxGeometry x="70" y="32.5" width="10" height="15" as="geometry">
              <mxPoint x="6" y="-7" as="offset" />
            </mxGeometry>
          </mxCell>
        </object>
        <mxCell id="lBjsrYSol-ikti7NKIQm-19" style="edgeStyle=orthogonalEdgeStyle;rounded=0;orthogonalLoop=1;jettySize=auto;html=1;exitX=1;exitY=0.5;exitDx=0;exitDy=0;entryX=0;entryY=0.5;entryDx=0;entryDy=0;" edge="1" parent="57yz_Z7oe9A5NPwQm8N_-3" source="lBjsrYSol-ikti7NKIQm-18" target="lBjsrYSol-ikti7NKIQm-13">
          <mxGeometry relative="1" as="geometry" />
        </mxCell>
        <mxCell id="lBjsrYSol-ikti7NKIQm-20" style="edgeStyle=orthogonalEdgeStyle;rounded=0;orthogonalLoop=1;jettySize=auto;html=1;exitX=1;exitY=0.5;exitDx=0;exitDy=0;entryX=0;entryY=0.5;entryDx=0;entryDy=0;" edge="1" parent="57yz_Z7oe9A5NPwQm8N_-3" source="lBjsrYSol-ikti7NKIQm-16" target="lBjsrYSol-ikti7NKIQm-7">
          <mxGeometry relative="1" as="geometry" />
        </mxCell>
      </root>
    </mxGraphModel>
  </diagram>
</mxfile>
